# xmcd
#
# Track frame offsets: 
#        183
#        14768
#        34620
#        53260
#        66298
#        79333
#        94683
#        109593
#        124720
#        143208
#        152358
#        170958
#        186705
#        203583
#        220258
#        233353
#        248588
#        267983
#
# Disc length: 3746 seconds
#
# Revision: 1
# Processed by: cddbd v1.5.2PL0 Copyright (c) Steve Scherf et al.
# Submitted via: ExactAudioCopyFreeDBPlugin 1.0
#
DISCID=f40ea012
DTITLE=양희은 - 양희은 골든 베스트 18
DYEAR=1990
DGENRE=Ballad
TTITLE0=아침이슬
TTITLE1=사랑이야
TTITLE2=서울로 가는 길
TTITLE3=하늘
TTITLE4=그리운 내님네는
TTITLE5=나홀로
TTITLE6=빗속을 둘이서
TTITLE7=세월이 가면
TTITLE8=보고싶은 마음
TTITLE9=내곁에 와요
TTITLE10=한계령
TTITLE11=나뭇잎 사이로
TTITLE12=작은 배
TTITLE13=두리번 거린다
TTITLE14=인형
TTITLE15=숲
TTITLE16=저 높은 곳을 향하여
TTITLE17=나도
EXTD=
EXTT0=
EXTT1=
EXTT2=
EXTT3=
EXTT4=
EXTT5=
EXTT6=
EXTT7=
EXTT8=
EXTT9=
EXTT10=
EXTT11=
EXTT12=
EXTT13=
EXTT14=
EXTT15=
EXTT16=
EXTT17=
PLAYORDER=
